<?xml version="1.0" encoding="UTF-8" standalone="no"?>
<!DOCTYPE svg PUBLIC "-//W3C//DTD SVG 1.1//EN" "http://www.w3.org/Graphics/SVG/1.1/DTD/svg11.dtd">
<svg width="100%" height="100%" viewBox="0 0 64 64" version="1.1" xmlns="http://www.w3.org/2000/svg" xmlns:xlink="http://www.w3.org/1999/xlink" xml:space="preserve" xmlns:serif="http://www.serif.com/" style="fill-rule:evenodd;clip-rule:evenodd;stroke-linejoin:round;stroke-miterlimit:2;">
    <path d="M31,2C15.012,2 2,15.012 2,31C2,43.648 10.145,54.426 21.457,58.379C21.617,58.492 21.809,58.563 22.012,58.566C24.84,59.492 27.863,60 31,60C46.988,60 60,46.988 60,31C60,15.012 46.988,2 31,2ZM31,4C45.887,4 58,16.113 58,31C58,42.66 50.57,52.613 40.199,56.387C40.09,56.063 40,55.582 40,55.254L40,50C40,47.906 38.977,45.625 37.969,44.094C43.52,43.156 49.863,40.277 49.863,29.531C49.863,26.586 48.941,23.988 47.125,21.801C47.523,20.488 48.016,17.719 46.641,14.242C46.531,13.965 46.301,13.75 46.016,13.656C45.734,13.57 43.168,12.902 37.84,16.398C35.672,15.84 33.379,15.551 31,15.543C28.633,15.551 26.336,15.84 24.176,16.398C18.848,12.898 16.273,13.566 15.996,13.656C15.711,13.75 15.48,13.965 15.371,14.242C13.992,17.723 14.484,20.488 14.891,21.801C13.066,23.988 12.145,26.586 12.145,29.531C12.145,40.18 18.375,43.113 23.879,44.09C23.188,44.965 22.461,46.098 22.141,47.25C20.719,47.645 17.805,47.656 15.848,44.305C15.777,44.176 14.066,41.137 10.691,40.902C10.156,40.906 8.797,40.992 8.469,42.031C8.105,43.184 9.379,44.059 9.926,44.43C9.961,44.453 10.016,44.484 10.051,44.504C10.113,44.535 11.57,45.301 12.656,48.035C12.883,48.75 14.871,54.137 22.008,53.188C22.012,53.977 22.008,54.375 22,54.691L22,55.25C22,55.574 21.902,56.063 21.793,56.379C11.422,52.605 4,42.652 4,31C4,16.113 16.113,4 31,4ZM30.758,7.004C26.859,7.047 23.004,8.074 19.609,10.016C19.129,10.285 18.961,10.898 19.234,11.375C19.418,11.699 19.754,11.883 20.105,11.883C20.273,11.883 20.441,11.84 20.598,11.75C24.734,9.391 29.617,8.508 34.34,9.266C34.883,9.355 35.395,8.984 35.484,8.438C35.57,7.891 35.199,7.379 34.656,7.289C33.363,7.082 32.059,6.988 30.758,7.004ZM38.656,8.387C38.27,8.402 37.906,8.648 37.766,9.035C37.57,9.555 37.832,10.129 38.352,10.324C39.063,10.59 39.766,10.895 40.453,11.238C40.598,11.313 40.75,11.348 40.902,11.348C41.266,11.348 41.617,11.148 41.797,10.797C42.043,10.309 41.844,9.703 41.352,9.453C40.605,9.078 39.828,8.738 39.051,8.449C38.922,8.402 38.789,8.383 38.656,8.387ZM44.984,15.547C46.059,18.707 45.324,20.996 45.059,21.645C44.914,22.004 44.988,22.414 45.25,22.699C46.98,24.594 47.859,26.891 47.859,29.531C47.859,39.668 41.852,41.703 35.969,42.355C35.574,42.398 35.242,42.672 35.125,43.051C35.004,43.43 35.125,43.844 35.426,44.105C36.215,44.781 38,47.715 38,50L38,55.254C38,55.273 38.004,56.145 38.289,56.992C35.969,57.645 33.527,58 31,58C28.469,58 26.023,57.641 23.699,56.988C23.988,56.137 23.996,55.266 23.996,55.25L24,54.715C24.004,54.262 24.012,53.648 24,51.996C23.996,51.691 23.859,51.41 23.625,51.219C23.391,51.031 23.082,50.961 22.785,51.023C16.07,52.488 14.617,47.641 14.563,47.438C14.551,47.402 14.539,47.371 14.527,47.336C13.566,44.898 12.301,43.656 11.547,43.094C13.176,43.668 14.086,45.258 14.109,45.293C16.754,49.82 21.121,49.938 23.406,48.914C23.723,48.773 23.941,48.48 23.988,48.141C24.191,46.711 25.762,44.82 26.555,44.125C26.852,43.863 26.969,43.449 26.848,43.074C26.73,42.695 26.402,42.422 26.012,42.379C20.145,41.711 14.145,39.66 14.145,29.531C14.145,26.895 15.023,24.594 16.762,22.699C17.023,22.414 17.098,22.004 16.949,21.645C16.684,20.996 15.945,18.715 17.016,15.551C17.867,15.578 19.941,15.941 23.434,18.313C23.676,18.477 23.984,18.527 24.266,18.449C26.355,17.867 28.688,17.555 31,17.543C33.32,17.555 35.652,17.867 37.746,18.449C38.027,18.527 38.332,18.477 38.574,18.313C42.086,15.93 44.16,15.574 44.984,15.547ZM21.375,34.395C20.984,34.348 20.59,34.527 20.387,34.887L19.387,36.617C19.109,37.098 19.273,37.707 19.75,37.984C19.906,38.074 20.078,38.117 20.25,38.117C20.594,38.117 20.93,37.938 21.113,37.617L22.113,35.887C22.391,35.41 22.23,34.797 21.75,34.52C21.629,34.453 21.504,34.41 21.375,34.395ZM40.625,34.395C40.496,34.41 40.367,34.453 40.25,34.52C39.77,34.797 39.609,35.41 39.887,35.891L40.887,37.621C41.07,37.941 41.406,38.121 41.75,38.121C41.922,38.121 42.094,38.074 42.25,37.984C42.73,37.707 42.891,37.098 42.613,36.621L41.613,34.891C41.406,34.531 41.012,34.348 40.625,34.395ZM36.188,36.344C36.059,36.324 35.922,36.332 35.785,36.371C35.254,36.512 34.938,37.059 35.078,37.594L35.598,39.527C35.719,39.973 36.121,40.266 36.563,40.266C36.652,40.266 36.738,40.254 36.824,40.234C37.355,40.09 37.676,39.543 37.531,39.008L37.016,37.078C36.906,36.676 36.57,36.398 36.188,36.344ZM25.816,36.344C25.43,36.398 25.094,36.676 24.984,37.078L24.469,39.012C24.324,39.543 24.645,40.09 25.176,40.234C25.262,40.258 25.348,40.266 25.438,40.266C25.875,40.266 26.281,39.973 26.402,39.527L26.922,37.594C27.063,37.063 26.746,36.512 26.215,36.371C26.078,36.332 25.945,36.328 25.816,36.344ZM31,37C30.445,37 30,37.445 30,38L30,40C30,40.555 30.445,41 31,41C31.555,41 32,40.555 32,40L32,38C32,37.445 31.555,37 31,37Z" style="fill:white;fill-rule:nonzero;"/>
</svg>
