<?xml version="1.0" encoding="UTF-8" standalone="no"?>
<!DOCTYPE svg PUBLIC "-//W3C//DTD SVG 1.1//EN" "http://www.w3.org/Graphics/SVG/1.1/DTD/svg11.dtd">
<svg width="100%" height="100%" viewBox="0 0 64 64" version="1.1" xmlns="http://www.w3.org/2000/svg" xmlns:xlink="http://www.w3.org/1999/xlink" xml:space="preserve" xmlns:serif="http://www.serif.com/" style="fill-rule:evenodd;clip-rule:evenodd;stroke-linejoin:round;stroke-miterlimit:2;">
    <path d="M32,3C16.017,3 3,16.017 3,32C3,47.983 16.017,61 32,61C47.983,61 61,47.983 61,32C61,16.017 47.983,3 32,3ZM32,5C46.899,5 59,17.101 59,32C59,33.985 58.779,35.918 58.371,37.781C58.404,31.968 55.498,26.254 50.223,23.027C47.494,21.357 44.474,20.569 41.496,20.549C41.14,20.547 40.81,20.735 40.629,21.041C38.88,24.012 35.669,26.01 31.969,26.01C26.405,26.01 21.916,21.521 21.916,15.957C21.916,11.604 24.679,7.923 28.537,6.52C28.93,6.375 29.192,5.999 29.192,5.581C29.192,5.434 29.16,5.289 29.098,5.156C30.052,5.054 31.019,5 32,5ZM22.857,6.594C18.141,9.601 15.008,14.866 15.008,20.869C15.008,23.845 15.781,26.647 17.129,29.078C17.308,29.402 17.653,29.601 18.023,29.594C21.597,29.527 25.089,31.366 26.973,34.705C29.707,39.551 28.003,45.666 23.158,48.4C18.777,50.872 13.2,49.767 10.166,45.977C9.833,45.566 9.228,45.487 8.801,45.799C6.39,41.759 5,37.041 5,32C5,20.31 12.451,10.345 22.857,6.594ZM32.16,8.287C31.412,8.279 30.664,8.307 29.918,8.373C29.367,8.421 28.96,8.906 29.008,9.457C29.056,10.007 29.541,10.424 30.092,10.365C35.55,9.888 41.163,11.574 45.486,15.039C45.671,15.187 45.891,15.26 46.111,15.26C46.404,15.26 46.695,15.132 46.893,14.885C47.238,14.454 47.169,13.825 46.738,13.479C42.608,10.168 37.399,8.34 32.16,8.287ZM21.314,10.629C20.496,12.253 19.916,14.017 19.916,15.957C19.916,22.601 25.324,28.01 31.969,28.01C36.138,28.01 39.76,25.836 41.922,22.609C44.41,22.698 46.907,23.341 49.18,24.732C52.912,27.016 55.107,30.755 55.896,34.775C54.946,32.986 53.694,31.341 51.887,30.184C46.29,26.601 38.821,28.243 35.238,33.838C32.805,37.639 32.859,42.269 34.85,45.99C33.673,47.685 32.179,49.189 30.293,50.313C30.292,50.312 30.292,50.312 30.291,50.313C26.438,52.61 21.996,52.794 17.998,51.541C20.094,51.561 22.208,51.233 24.141,50.143C29.926,46.877 31.98,39.51 28.715,33.723C26.592,29.962 22.733,27.845 18.705,27.676C17.651,25.628 17.008,23.333 17.008,20.869C17.008,16.836 18.723,13.309 21.314,10.629ZM49.75,16.795C49.496,16.767 49.231,16.835 49.016,17.008C48.585,17.353 48.516,17.981 48.861,18.412C49.457,19.156 50.008,19.949 50.5,20.764C50.688,21.075 51.018,21.246 51.357,21.246C51.533,21.246 51.71,21.2 51.873,21.102C52.346,20.817 52.499,20.202 52.213,19.729C51.675,18.838 51.073,17.974 50.422,17.162C50.249,16.946 50.004,16.823 49.75,16.795ZM13.164,18.326C12.835,18.335 12.531,18.505 12.352,18.781C9.461,23.097 7.964,28.394 8.451,33.957C8.726,37.09 9.605,40.033 10.963,42.674C11.134,43.007 11.478,43.217 11.853,43.217C12.402,43.217 12.853,42.765 12.853,42.216C12.853,42.057 12.815,41.899 12.742,41.758C11.5,39.342 10.695,36.656 10.443,33.783C9.997,28.684 11.366,23.845 14.014,19.893C14.128,19.726 14.19,19.528 14.19,19.326C14.19,18.777 13.738,18.326 13.19,18.326C13.181,18.326 13.173,18.326 13.164,18.326ZM45.146,30.279C47.081,30.232 49.051,30.744 50.809,31.869L50.809,31.867C54.803,34.425 56.427,39.458 54.957,43.773C54.923,43.876 54.905,43.983 54.905,44.092C54.905,44.536 55.202,44.93 55.629,45.053C51.023,53.364 42.165,59 32,59C25.217,59 19.019,56.486 14.273,52.348C19.437,55.154 25.942,55.234 31.316,52.029C33.626,50.653 35.475,48.803 36.842,46.693C37.052,46.369 37.057,45.952 36.854,45.623C34.884,42.439 34.766,38.286 36.924,34.916C38.799,31.988 41.923,30.358 45.146,30.279ZM49.445,43.488C48.919,43.519 48.503,43.96 48.503,44.487C48.503,44.814 48.664,45.122 48.934,45.309L50.557,46.475C50.73,46.606 50.942,46.677 51.16,46.677C51.709,46.677 52.16,46.226 52.16,45.677C52.16,45.347 51.997,45.038 51.725,44.852L50.102,43.684C49.94,43.564 49.746,43.496 49.545,43.488C49.512,43.487 49.478,43.487 49.445,43.488ZM46.342,46.971C45.812,46.997 45.391,47.439 45.391,47.97C45.391,48.221 45.485,48.464 45.656,48.648L46.992,50.135C47.182,50.353 47.458,50.479 47.747,50.479C48.296,50.479 48.747,50.028 48.747,49.479C48.747,49.227 48.652,48.984 48.48,48.799L47.143,47.311C46.942,47.081 46.646,46.956 46.342,46.971ZM42.564,49.693C42.028,49.71 41.595,50.156 41.595,50.693C41.595,50.871 41.642,51.046 41.732,51.199L42.719,52.939C42.896,53.252 43.229,53.446 43.589,53.446C44.138,53.446 44.589,52.995 44.589,52.446C44.589,52.273 44.544,52.104 44.459,51.953L43.473,50.213C43.292,49.883 42.94,49.682 42.564,49.693ZM38.299,51.547C37.754,51.553 37.309,52.002 37.309,52.547C37.309,52.651 37.326,52.754 37.357,52.854L37.943,54.764C38.062,55.197 38.459,55.5 38.908,55.5C39.457,55.5 39.908,55.049 39.908,54.5C39.908,54.391 39.89,54.283 39.855,54.18L39.27,52.268C39.145,51.838 38.746,51.542 38.299,51.547ZM33.725,52.428C33.723,52.428 33.722,52.428 33.72,52.428C33.171,52.428 32.72,52.879 32.72,53.428C32.72,53.46 32.722,53.492 32.725,53.523L32.887,55.516C32.929,56.032 33.366,56.435 33.884,56.435C34.433,56.435 34.884,55.983 34.884,55.435C34.884,55.408 34.883,55.38 34.881,55.354L34.719,53.361C34.684,52.84 34.247,52.43 33.725,52.428Z" style="fill:white;fill-rule:nonzero;"/>
</svg>
